<svg width="684" height="393" xmlns="http://www.w3.org/2000/svg" xmlns:xlink="http://www.w3.org/1999/xlink" xml:space="preserve" overflow="hidden"><defs><clipPath id="clip0"><rect x="974" y="479" width="684" height="393"/></clipPath><clipPath id="clip1"><rect x="977" y="487" width="522" height="378"/></clipPath><clipPath id="clip2"><rect x="977" y="487" width="521" height="378"/></clipPath><clipPath id="clip3"><rect x="552" y="421" width="946" height="944"/></clipPath></defs><g clip-path="url(#clip0)" transform="translate(-974 -479)"><path d="M1449.96 767.983 1359.97 767.983 1359.97 767.96 1395.2 760.184C1400.33 758.986 1403.51 753.89 1402.3 748.801 1401.12 743.801 1396.13 740.651 1391.07 741.702L1339.58 753.063C1337.4 753.546 1335.46 754.774 1334.1 756.532L1317.89 777.458 1303.5 777.458 1303.5 832.354 1313.04 832.354C1326.55 832.354 1327.58 847.5 1353.09 847.5L1387.42 847.5C1393.74 847.506 1398.86 842.432 1398.87 836.166 1398.87 833.335 1397.81 830.606 1395.89 828.514 1396.24 828.546 1396.6 828.566 1396.96 828.566 1403.28 828.57 1408.4 823.491 1408.4 817.221 1408.4 814.285 1407.26 811.463 1405.21 809.346 1411.37 807.966 1415.24 801.889 1413.85 795.772 1412.67 790.589 1408.03 786.91 1402.68 786.916L1449.96 786.916C1455.23 786.916 1459.5 782.678 1459.5 777.449 1459.5 772.221 1455.23 767.983 1449.96 767.983Z" stroke="#FFFFFF" stroke-width="4.58333" stroke-miterlimit="8" fill-rule="evenodd"/><g clip-path="url(#clip1)"><g clip-path="url(#clip2)"><g clip-path="url(#clip3)"><path d="M796.05 376.797C792.489 355.388 772.253 340.914 750.842 344.463L664.849 358.812C664.849 358.812 628.978 263.581 628.978 262.696 610.698 206.383 532.272 206.383 471.733 206.383 411.194 206.383 333.26 206.383 315.373 262.696 315.373 263.581 279.207 358.812 279.207 358.812L193.214 344.463C171.835 340.683 151.439 354.949 147.657 376.328 143.877 397.707 158.144 418.104 179.523 421.885 179.762 421.927 180.002 421.966 180.241 422.005L298.175 441.66C300.314 442.051 302.485 442.249 304.661 442.25 321.075 442.263 335.77 432.074 341.515 416.698L365.691 351.933 373.455 355.372 373.455 913.983 452.078 913.983 452.078 560.183 491.389 560.183 491.389 913.983 570.011 913.983 570.011 355.471C572.861 354.291 575.613 353.112 578.266 351.834L602.541 416.698C608.273 432.041 622.918 442.221 639.297 442.25 641.473 442.249 643.644 442.051 645.783 441.66L763.716 422.005C785.126 418.444 799.599 398.208 796.05 376.797Z" stroke="#FFFFFF" stroke-width="7.22963" transform="matrix(1.00178 0 0 1 552.845 421.222)"/><path d="M550.355 108.106C550.355 151.527 515.155 186.728 471.733 186.728 428.311 186.728 393.111 151.527 393.111 108.106 393.111 64.6837 428.311 29.4833 471.733 29.4833 515.155 29.4833 550.355 64.6837 550.355 108.106Z" stroke="#FFFFFF" stroke-width="7.22963" transform="matrix(1.00178 0 0 1 552.845 421.222)"/></g></g></g><path d="M1606.87 610.283 1293.92 573.726C1283.39 572.508 1273.85 580.047 1272.61 590.579L1259.24 705.072C1258.02 715.607 1265.56 725.14 1276.09 726.383L1589.04 762.94C1599.57 764.158 1609.1 756.619 1610.35 746.087L1623.72 631.594C1624.94 621.059 1617.4 611.526 1606.87 610.283ZM1602.72 745.195C1601.98 751.519 1596.25 756.046 1589.93 755.307L1276.98 718.75C1270.66 718.012 1266.13 712.287 1266.87 705.964L1280.24 591.471C1280.98 585.148 1286.71 580.62 1293.03 581.359L1605.98 617.916C1612.3 618.655 1616.83 624.379 1616.09 630.703Z" fill-rule="evenodd"/><path d="M1290.54 652.445 1340.71 658.305 1334.85 708.472 1284.68 702.612Z" fill-rule="evenodd"/><path d="M1353.74 659.984 1403.9 665.844 1398.04 716.011 1347.88 710.151Z" fill-rule="evenodd"/><path d="M1479.6 675.133 1529.77 680.993 1523.91 731.159 1473.74 725.299Z" fill-rule="evenodd"/><path d="M1543.54 682.695 1593.71 688.555 1587.85 738.722 1537.68 732.862Z" fill-rule="evenodd"/><path d="M1416.35 667.57 1466.52 673.43 1460.66 723.597 1410.49 717.737Z" fill-rule="evenodd"/><path d="M976.5 481.5 1655.5 481.5 1655.5 869.5 976.5 869.5ZM988.369 493.369 988.369 857.631 1643.63 857.631 1643.63 493.369Z" stroke="#000000" stroke-width="4.58333" stroke-miterlimit="8" fill="#00B0F0" fill-rule="evenodd"/></g></svg>