<svg width="683" height="392" xmlns="http://www.w3.org/2000/svg" xmlns:xlink="http://www.w3.org/1999/xlink" xml:space="preserve" overflow="hidden"><defs><clipPath id="clip0"><rect x="240" y="481" width="683" height="392"/></clipPath><clipPath id="clip1"><rect x="243" y="489" width="521" height="379"/></clipPath><clipPath id="clip2"><rect x="243" y="489" width="521" height="379"/></clipPath><clipPath id="clip3"><rect x="-182" y="422" width="946" height="944"/></clipPath></defs><g clip-path="url(#clip0)" transform="translate(-240 -481)"><path d="M742.18 672.655 800.88 679.512 794.023 738.213 735.323 731.356Z" fill="#00B0F0" fill-rule="evenodd"/><path d="M872.524 611.815 559.577 575.258C549.043 574.04 539.509 581.579 538.266 592.111L524.892 706.604C523.674 717.139 531.213 726.672 541.745 727.915L854.691 764.472C865.227 765.69 874.76 758.151 876.003 747.619L889.377 633.126C890.595 622.591 883.056 613.058 872.524 611.815ZM868.37 746.727C867.631 753.05 861.906 757.578 855.583 756.839L542.636 720.282C536.313 719.543 531.786 713.819 532.524 707.495L545.899 593.003C546.638 586.679 552.363 582.152 558.686 582.891L871.632 619.448C877.956 620.186 882.483 625.911 881.744 632.234Z" fill-rule="evenodd"/><path d="M556.196 653.977 606.361 659.837 600.501 710.003 550.336 704.143Z" fill-rule="evenodd"/><path d="M619.39 661.516 669.555 667.376 663.695 717.542 613.53 711.682Z" fill-rule="evenodd"/><path d="M745.258 676.664 795.424 682.525 789.563 732.691 739.398 726.831Z" fill-rule="evenodd"/><path d="M809.197 684.227 859.362 690.087 853.502 740.253 803.337 734.393Z" fill-rule="evenodd"/><path d="M682.009 669.102 732.174 674.962 726.314 725.128 676.149 719.268Z" fill-rule="evenodd"/><path d="M698.348 724.06 614.552 756.294 614.544 756.272 644.547 736.358C648.889 733.398 650.01 727.48 647.05 723.137 644.143 718.872 638.364 717.703 634.027 720.504L590.186 749.601C588.331 750.835 586.967 752.682 586.335 754.819L578.791 780.254 565.397 785.406 585.205 836.899 594.085 833.483C606.665 828.644 613.094 842.48 636.844 833.344L668.811 821.047C674.691 818.792 677.63 812.197 675.374 806.317 674.356 803.661 672.381 801.482 669.839 800.207 670.18 800.11 670.519 800.002 670.857 799.872 676.739 797.614 679.677 791.014 677.418 785.132 676.36 782.377 674.277 780.139 671.604 778.888 676.844 775.387 678.253 768.3 674.752 763.06 671.785 758.621 666.137 756.832 661.155 758.755L705.18 741.819C710.084 739.933 712.53 734.428 710.644 729.523 708.757 724.619 703.252 722.173 698.348 724.06Z" stroke="#FFFFFF" stroke-width="4.58333" stroke-miterlimit="8" fill-rule="evenodd"/><path d="M0 0 57.7294 25.5609" stroke="#00B0F0" stroke-width="4.58333" stroke-miterlimit="8" stroke-dasharray="4.58333 4.58333" fill="none" fill-rule="evenodd" transform="matrix(1 0 0 -1 713.5 727.061)"/><g clip-path="url(#clip1)"><g clip-path="url(#clip2)"><g clip-path="url(#clip3)"><path d="M796.07 376.807C792.51 355.397 772.273 340.923 750.861 344.472L664.866 358.821C664.866 358.821 628.994 263.588 628.994 262.703 610.714 206.389 532.286 206.389 471.745 206.389 411.205 206.389 333.268 206.389 315.381 262.703 315.381 263.588 279.214 358.821 279.214 358.821L193.219 344.472C171.839 340.692 151.443 354.958 147.661 376.338 143.88 397.718 158.148 418.115 179.528 421.896 179.766 421.938 180.006 421.977 180.246 422.016L298.182 441.672C300.322 442.063 302.493 442.26 304.669 442.261 321.084 442.274 335.779 432.085 341.524 416.708L365.701 351.942 373.465 355.382 373.465 914.007 452.089 914.007 452.089 560.198 491.401 560.198 491.401 914.007 570.026 914.007 570.026 355.48C572.876 354.3 575.628 353.121 578.281 351.843L602.556 416.708C608.289 432.052 622.934 442.233 639.313 442.261 641.489 442.26 643.66 442.063 645.8 441.672L763.736 422.016C785.146 418.455 799.62 398.218 796.07 376.807Z" stroke="#FFFFFF" stroke-width="7.22981" transform="matrix(1.00066 0 0 1 -181.106 422.314)"/><path d="M550.37 108.108C550.37 151.531 515.168 186.733 471.745 186.733 428.322 186.733 393.121 151.531 393.121 108.108 393.121 64.6853 428.322 29.4841 471.745 29.4841 515.168 29.4841 550.37 64.6853 550.37 108.108Z" stroke="#FFFFFF" stroke-width="7.22981" transform="matrix(1.00066 0 0 1 -181.106 422.314)"/></g></g></g><path d="M242.5 483.5 920.5 483.5 920.5 870.5 242.5 870.5ZM254.338 495.338 254.338 858.661 908.662 858.661 908.662 495.338Z" stroke="#000000" stroke-width="4.58333" stroke-miterlimit="8" fill="#00B0F0" fill-rule="evenodd"/></g></svg>