<svg width="684" height="392" xmlns="http://www.w3.org/2000/svg" xmlns:xlink="http://www.w3.org/1999/xlink" xml:space="preserve" overflow="hidden"><defs><clipPath id="clip0"><rect x="1802" y="475" width="684" height="392"/></clipPath><clipPath id="clip1"><rect x="1810" y="479" width="561" height="382"/></clipPath><clipPath id="clip2"><rect x="1810" y="479" width="561" height="382"/></clipPath><clipPath id="clip3"><rect x="1428" y="398" width="944" height="944"/></clipPath></defs><g clip-path="url(#clip0)" transform="translate(-1802 -475)"><path d="M2304.97 666.292 2363.67 673.149 2356.81 731.85 2298.11 724.993Z" fill="#00B0F0" fill-rule="evenodd"/><path d="M2435.32 605.451 2122.37 568.895C2111.83 567.677 2102.3 575.215 2101.06 585.748L2087.68 700.24C2086.47 710.776 2094 720.309 2104.54 721.552L2417.48 758.109C2428.02 759.327 2437.55 751.788 2438.79 741.255L2452.17 626.763C2453.39 616.227 2445.85 606.694 2435.32 605.451ZM2431.16 740.364C2430.42 746.687 2424.7 751.214 2418.37 750.476L2105.43 713.919C2099.1 713.18 2094.58 707.456 2095.32 701.132L2108.69 586.639C2109.43 580.316 2115.15 575.789 2121.48 576.528L2434.42 613.084C2440.75 613.823 2445.27 619.548 2444.54 625.871Z" fill-rule="evenodd"/><path d="M2118.99 647.614 2169.15 653.474 2163.29 703.64 2113.13 697.78Z" fill-rule="evenodd"/><path d="M2182.18 655.153 2232.35 661.013 2226.49 711.179 2176.32 705.319Z" fill-rule="evenodd"/><path d="M2308.05 670.301 2358.22 676.161 2352.35 726.327 2302.19 720.467Z" fill-rule="evenodd"/><path d="M2371.99 677.864 2422.15 683.724 2416.29 733.89 2366.13 728.03Z" fill-rule="evenodd"/><path d="M2244.8 662.739 2294.97 668.599 2289.11 718.765 2238.94 712.905Z" fill-rule="evenodd"/><path d="M2322.14 687.035 2342.47 689.41 2340.09 709.74 2319.76 707.365Z" fill="#00B0F0" fill-rule="evenodd"/><path d="M2306.51 699.821 2222.72 732.056 2222.71 732.034 2252.71 712.119C2257.06 709.16 2258.18 703.241 2255.22 698.899 2252.31 694.633 2246.53 693.465 2242.19 696.265L2198.35 725.363C2196.5 726.597 2195.13 728.444 2194.5 730.581L2186.96 756.015 2173.56 761.168 2193.37 812.661 2202.25 809.245C2214.83 804.406 2221.26 818.242 2245.01 809.106L2276.98 796.809C2282.86 794.554 2285.8 787.959 2283.54 782.079 2282.52 779.423 2280.55 777.244 2278.01 775.969 2278.35 775.872 2278.69 775.764 2279.02 775.634 2284.91 773.375 2287.84 766.776 2285.58 760.893 2284.53 758.139 2282.44 755.901 2279.77 754.65 2285.01 751.148 2286.42 744.062 2282.92 738.822 2279.95 734.382 2274.3 732.594 2269.32 734.516L2313.35 717.581C2318.25 715.694 2320.7 710.189 2318.81 705.285 2316.92 700.381 2311.42 697.935 2306.51 699.821Z" stroke="#FFFFFF" stroke-width="4.58333" stroke-miterlimit="8" fill-rule="evenodd"/><g clip-path="url(#clip1)"><g clip-path="url(#clip2)"><g clip-path="url(#clip3)"><path d="M795.615 376.591C792.057 355.194 771.831 340.728 750.432 344.275L664.486 358.616C664.486 358.616 628.634 263.437 628.634 262.553 610.365 206.271 531.982 206.271 471.476 206.271 410.97 206.271 333.078 206.271 315.201 262.553 315.201 263.437 279.055 358.616 279.055 358.616L193.109 344.275C171.741 340.497 151.356 354.755 147.577 376.123 143.798 397.49 158.057 417.876 179.425 421.654 179.664 421.697 179.903 421.736 180.143 421.774L298.012 441.419C300.15 441.81 302.32 442.008 304.495 442.008 320.9 442.021 335.587 431.838 341.329 416.47L365.492 351.741 373.252 355.178 373.252 913.484 451.831 913.484 451.831 559.877 491.121 559.877 491.121 913.484 569.7 913.484 569.7 355.277C572.548 354.098 575.299 352.919 577.951 351.642L602.212 416.47C607.941 431.805 622.578 441.98 638.948 442.008 641.122 442.008 643.292 441.81 645.431 441.419L763.299 421.774C784.698 418.216 799.163 397.99 795.615 376.591Z" stroke="#FFFFFF" stroke-width="7.22568" transform="matrix(1 0 0 1.0004 1428.06 398.412)"/><path d="M550.055 108.047C550.055 151.445 514.874 186.626 471.476 186.626 428.078 186.626 392.896 151.445 392.896 108.047 392.896 64.6484 428.078 29.4672 471.476 29.4672 514.874 29.4672 550.055 64.6484 550.055 108.047Z" stroke="#FFFFFF" stroke-width="7.22568" transform="matrix(1 0 0 1.0004 1428.06 398.412)"/></g></g></g><path d="M1804.5 477.5 2483.5 477.5 2483.5 864.5 1804.5 864.5ZM1816.34 489.338 1816.34 852.662 2471.66 852.662 2471.66 489.338Z" stroke="#000000" stroke-width="4.58333" stroke-miterlimit="8" fill="#00B0F0" fill-rule="evenodd"/><path d="M2285.96 701.902 2295.11 698.226C2299.93 689.959 2310.54 687.165 2318.81 691.986 2327.08 696.807 2329.87 707.417 2325.05 715.684 2321.09 722.483 2313.04 725.756 2305.45 723.652L2296.24 727.351C2307.5 734.982 2322.81 732.043 2330.44 720.786 2338.07 709.529 2335.13 694.218 2323.87 686.587 2312.62 678.957 2297.31 681.896 2289.67 693.153 2287.88 695.8 2286.62 698.772 2285.96 701.902Z" stroke="#FFFFFF" stroke-width="3.4375" stroke-miterlimit="8" fill="#00B0F0" fill-rule="evenodd"/></g></svg>