<svg width="684" height="392" xmlns="http://www.w3.org/2000/svg" xmlns:xlink="http://www.w3.org/1999/xlink" xml:space="preserve" overflow="hidden"><defs><clipPath id="clip0"><rect x="2542" y="475" width="684" height="392"/></clipPath><clipPath id="clip1"><rect x="2546" y="482" width="565" height="376"/></clipPath><clipPath id="clip2"><rect x="2546" y="482" width="565" height="376"/></clipPath><clipPath id="clip3"><rect x="2167" y="398" width="944" height="944"/></clipPath></defs><g clip-path="url(#clip0)" transform="translate(-2542 -475)"><path d="M3044.87 666.292 3103.57 673.149 3096.72 731.85 3038.02 724.993Z" fill="#00B0F0" fill-rule="evenodd"/><path d="M3175.22 605.451 2862.27 568.895C2851.74 567.677 2842.2 575.215 2840.96 585.748L2827.59 700.24C2826.37 710.776 2833.91 720.309 2844.44 721.552L3157.39 758.109C3167.92 759.327 3177.45 751.788 3178.7 741.255L3192.07 626.763C3193.29 616.227 3185.75 606.694 3175.22 605.451ZM3171.06 740.364C3170.33 746.687 3164.6 751.214 3158.28 750.476L2845.33 713.919C2839.01 713.18 2834.48 707.456 2835.22 701.132L2848.59 586.639C2849.33 580.316 2855.06 575.789 2861.38 576.528L3174.33 613.084C3180.65 613.823 3185.18 619.548 3184.44 625.871Z" fill-rule="evenodd"/><path d="M2858.89 647.614 2909.06 653.474 2903.2 703.64 2853.03 697.78Z" fill-rule="evenodd"/><path d="M2922.08 655.153 2972.25 661.013 2966.39 711.179 2916.22 705.319Z" fill-rule="evenodd"/><path d="M3047.95 670.301 3098.12 676.161 3092.26 726.327 3042.09 720.467Z" fill-rule="evenodd"/><path d="M3111.89 677.864 3162.06 683.724 3156.2 733.89 3106.03 728.03Z" fill-rule="evenodd"/><path d="M2984.7 662.739 3034.87 668.599 3029.01 718.765 2978.84 712.905Z" fill-rule="evenodd"/><path d="M3051.11 674.651 3093.27 679.576 3088.34 721.734 3046.18 716.809Z" fill="#00B0F0" fill-rule="evenodd"/><path d="M3046.42 699.821 2962.62 732.056 2962.61 732.034 2992.62 712.119C2996.96 709.16 2998.08 703.241 2995.12 698.899 2992.21 694.633 2986.43 693.465 2982.1 696.265L2938.26 725.363C2936.4 726.597 2935.04 728.444 2934.4 730.581L2926.86 756.015 2913.47 761.168 2933.27 812.661 2942.15 809.245C2954.73 804.406 2961.16 818.242 2984.91 809.106L3016.88 796.809C3022.76 794.554 3025.7 787.959 3023.44 782.079 3022.42 779.423 3020.45 777.244 3017.91 775.969 3018.25 775.872 3018.59 775.764 3018.93 775.634 3024.81 773.375 3027.75 766.776 3025.49 760.893 3024.43 758.139 3022.35 755.901 3019.67 754.65 3024.91 751.148 3026.32 744.062 3022.82 738.822 3019.85 734.382 3014.21 732.594 3009.22 734.516L3053.25 717.581C3058.15 715.694 3060.6 710.189 3058.71 705.285 3056.83 700.381 3051.32 697.935 3046.42 699.821Z" stroke="#FFFFFF" stroke-width="4.58333" stroke-miterlimit="8" fill-rule="evenodd"/><g clip-path="url(#clip1)"><g clip-path="url(#clip2)"><g clip-path="url(#clip3)"><path d="M795.53 376.551C791.972 355.156 771.749 340.691 750.352 344.239L664.415 358.578C664.415 358.578 628.567 263.409 628.567 262.525 610.299 206.249 531.925 206.249 471.425 206.249 410.926 206.249 333.042 206.249 315.168 262.525 315.168 263.409 279.025 358.578 279.025 358.578L193.088 344.239C171.723 340.46 151.34 354.717 147.561 376.083 143.783 397.448 158.04 417.831 179.406 421.609 179.645 421.652 179.884 421.691 180.124 421.729L297.98 441.372C300.118 441.763 302.288 441.96 304.462 441.961 320.866 441.974 335.551 431.792 341.292 416.426L365.453 351.703 373.212 355.14 373.212 913.387 451.783 913.387 451.783 559.818 491.068 559.818 491.068 913.387 569.639 913.387 569.639 355.239C572.487 354.06 575.237 352.882 577.889 351.605L602.148 416.426C607.877 431.759 622.511 441.933 638.88 441.961 641.054 441.96 643.224 441.763 645.362 441.372L763.218 421.729C784.614 418.171 799.078 397.948 795.53 376.551Z" stroke="#FFFFFF" stroke-width="7.22491" transform="matrix(1.00083 0 0 1 2167.37 398.7)"/><path d="M549.996 108.035C549.996 151.428 514.819 186.606 471.425 186.606 428.032 186.606 392.854 151.428 392.854 108.035 392.854 64.6415 428.032 29.4641 471.425 29.4641 514.819 29.4641 549.996 64.6415 549.996 108.035Z" stroke="#FFFFFF" stroke-width="7.22491" transform="matrix(1.00083 0 0 1 2167.37 398.7)"/></g></g></g><path d="M2544.5 477.5 3223.5 477.5 3223.5 864.5 2544.5 864.5ZM2556.34 489.338 2556.34 852.662 3211.66 852.662 3211.66 489.338Z" stroke="#000000" stroke-width="4.58333" stroke-miterlimit="8" fill="#00B0F0" fill-rule="evenodd"/><path d="M3025.71 704.652 3034.86 700.976C3039.68 692.709 3050.29 689.915 3058.56 694.736 3066.83 699.557 3069.62 710.167 3064.8 718.434 3060.84 725.233 3052.79 728.506 3045.2 726.402L3035.99 730.101C3047.25 737.732 3062.56 734.793 3070.19 723.536 3077.82 712.279 3074.88 696.968 3063.62 689.337 3052.37 681.707 3037.06 684.646 3029.42 695.903 3027.63 698.55 3026.37 701.522 3025.71 704.652Z" stroke="#FFFFFF" stroke-width="3.4375" stroke-miterlimit="8" fill="#00B0F0" fill-rule="evenodd"/></g></svg>