<svg width="684" height="392" xmlns="http://www.w3.org/2000/svg" xmlns:xlink="http://www.w3.org/1999/xlink" xml:space="preserve" overflow="hidden"><defs><clipPath id="clip0"><rect x="3296" y="476" width="684" height="392"/></clipPath><clipPath id="clip1"><rect x="3303" y="480" width="563" height="382"/></clipPath><clipPath id="clip2"><rect x="3303" y="480" width="562" height="382"/></clipPath><clipPath id="clip3"><rect x="2922" y="399" width="943" height="944"/></clipPath></defs><g clip-path="url(#clip0)" transform="translate(-3296 -476)"><path d="M3929.29 606.623 3616.35 570.066C3605.81 568.848 3596.28 576.387 3595.03 586.919L3581.66 701.412C3580.44 711.947 3587.98 721.48 3598.51 722.723L3911.46 759.28C3922 760.498 3931.53 752.959 3932.77 742.427L3946.15 627.934C3947.36 617.399 3939.82 607.866 3929.29 606.623ZM3925.14 741.535C3924.4 747.859 3918.68 752.386 3912.35 751.647L3599.41 715.09C3593.08 714.352 3588.55 708.627 3589.29 702.304L3602.67 587.811C3603.41 581.487 3609.13 576.96 3615.45 577.699L3928.4 614.256C3934.72 614.994 3939.25 620.719 3938.51 627.042Z" fill-rule="evenodd"/><path d="M3612.97 648.785 3663.13 654.645 3657.27 704.811 3607.1 698.951Z" fill-rule="evenodd"/><path d="M3676.16 656.324 3726.32 662.184 3720.46 712.35 3670.3 706.49Z" fill-rule="evenodd"/><path d="M3802.03 671.473 3852.19 677.333 3846.33 727.499 3796.17 721.639Z" fill-rule="evenodd"/><path d="M3865.97 679.035 3916.13 684.895 3910.27 735.061 3860.11 729.201Z" fill-rule="evenodd"/><path d="M3738.78 663.91 3788.94 669.77 3783.08 719.936 3732.92 714.076Z" fill-rule="evenodd"/><path d="M3798.95 667.463 3857.65 674.32 3850.79 733.022 3792.09 726.165Z" fill="#00B0F0" fill-rule="evenodd"/><path d="M3800.49 700.993 3716.7 733.227 3716.69 733.206 3746.69 713.291C3751.03 710.332 3752.15 704.413 3749.19 700.071 3746.29 695.805 3740.51 694.636 3736.17 697.437L3692.33 726.535C3690.47 727.769 3689.11 729.615 3688.48 731.752L3680.93 757.187 3667.54 762.339 3687.35 813.832 3696.23 810.416C3708.81 805.577 3715.24 819.413 3738.99 810.277L3770.95 797.98C3776.83 795.725 3779.77 789.13 3777.52 783.25 3776.5 780.595 3774.52 778.416 3771.98 777.141 3772.32 777.043 3772.66 776.935 3773 776.805 3778.88 774.547 3781.82 767.947 3779.56 762.065 3778.5 759.31 3776.42 757.072 3773.75 755.821 3778.99 752.32 3780.4 745.234 3776.9 739.993 3773.93 735.554 3768.28 733.765 3763.3 735.688L3807.32 718.753C3812.23 716.866 3814.67 711.361 3812.79 706.457 3810.9 701.553 3805.4 699.106 3800.49 700.993Z" stroke="#FFFFFF" stroke-width="4.58333" stroke-miterlimit="8" fill-rule="evenodd"/><g clip-path="url(#clip1)"><g clip-path="url(#clip2)"><g clip-path="url(#clip3)"><path d="M795.457 376.516C791.899 355.123 771.677 340.66 750.282 344.207L664.354 358.545C664.354 358.545 628.509 263.384 628.509 262.501 610.243 206.229 531.876 206.229 471.382 206.229 410.888 206.229 333.011 206.229 315.138 262.501 315.138 263.384 278.999 358.545 278.999 358.545L193.07 344.207C171.707 340.429 151.326 354.684 147.547 376.048 143.769 397.411 158.026 417.792 179.389 421.57 179.628 421.613 179.867 421.652 180.107 421.69L297.952 441.331C300.09 441.722 302.26 441.919 304.434 441.92 320.836 441.933 335.52 431.752 341.261 416.387L365.419 351.67 373.177 355.108 373.177 913.302 451.741 913.302 451.741 559.766 491.023 559.766 491.023 913.302 569.586 913.302 569.586 355.206C572.434 354.027 575.184 352.849 577.835 351.572L602.092 416.387C607.82 431.719 622.454 441.892 638.82 441.92 640.995 441.919 643.164 441.722 645.302 441.331L763.147 421.69C784.541 418.132 799.004 397.911 795.457 376.516Z" stroke="#FFFFFF" stroke-width="7.22424" transform="matrix(1 0 0 1.00057 2922.23 399.225)"/><path d="M549.945 108.025C549.945 151.414 514.771 186.589 471.382 186.589 427.992 186.589 392.818 151.414 392.818 108.025 392.818 64.6355 427.992 29.4614 471.382 29.4614 514.771 29.4614 549.945 64.6355 549.945 108.025Z" stroke="#FFFFFF" stroke-width="7.22424" transform="matrix(1 0 0 1.00057 2922.23 399.225)"/></g></g></g><path d="M3779.81 703.287 3789.85 699.164C3795.09 690.023 3806.75 686.86 3815.89 692.099 3825.03 697.337 3828.19 708.994 3822.96 718.135 3818.65 725.653 3809.81 729.322 3801.44 727.069L3791.34 731.218C3803.79 739.525 3820.62 736.163 3828.93 723.708 3837.24 711.252 3833.87 694.421 3821.42 686.113 3808.96 677.806 3792.13 681.169 3783.82 693.624 3781.87 696.553 3780.51 699.836 3779.81 703.287Z" stroke="#FFFFFF" stroke-width="3.4375" stroke-miterlimit="8" fill="#00B0F0" fill-rule="evenodd"/><path d="M3779.26 632.579 3785.99 650.305 3781.21 651.002 3791.21 667.25 3786.33 668.327 3797.27 694.081 3773.68 670.543 3779.55 669.561 3764.97 654.617 3771.97 652.875 3756.56 637.169Z" stroke="#FFFFFF" stroke-width="2.29167" stroke-miterlimit="8" fill="#00B0F0" fill-rule="evenodd"/><path d="M3823.34 637.056 3821.53 651.281 3818.09 650.048 3818.99 664.446 3815.35 663.433 3813.5 684.513 3806.12 660.416 3810.39 661.846 3805.97 646.689 3811.26 648.014 3806.56 632.053Z" stroke="#FFFFFF" stroke-width="2.29167" stroke-miterlimit="8" fill="#00B0F0" fill-rule="evenodd"/><path d="M20.3455 0 30.8834 15.5649 26.5366 17.4004 39.8097 30.7381 35.463 32.9653 51.8725 55.2963 24.0439 38.1826 29.3512 35.8069 12.0604 24.8449 18.2562 21.458 0 9.95845Z" stroke="#FFFFFF" stroke-width="2.29167" stroke-miterlimit="8" fill="#00B0F0" fill-rule="evenodd" transform="matrix(-0.99882 -0.0485677 -0.0485677 0.99882 3875.84 648.409)"/><path d="M3298.5 478.5 3977.5 478.5 3977.5 865.5 3298.5 865.5ZM3310.34 490.338 3310.34 853.662 3965.66 853.662 3965.66 490.338Z" stroke="#000000" stroke-width="4.58333" stroke-miterlimit="8" fill="#00B0F0" fill-rule="evenodd"/></g></svg>